PathFileType	4	(X/Y/Z)	/Users/itak/Documents/Research/Walk-IL/dataset/trc/00578_00009.trc
DataRate	CameraRate	NumFrames	NumMarkers	Units	OrigDataRate	OrigDataStartFrame	OrigNumFrames
100.000000	100.000000	4	53	mm	100.000000	387	517
Frame#	Time	RPSI			LPSI			L3			STRN			T10			C7			CLAV			RBAK			LBAK			LSHO			LUPA			LAEL			LAOL			LWTS			LWPS			LFRA			LIFD			LHPS			LHTS			RSHO			RUPA			RAEL			RAOL			RWTS			RWPS			RFRA			RIFD			RHTS			RHPS			RBHD			LFHD			RFHD			LBHD			LHIP			RHIP			RASI			LASI			LKNE			LTHI			LANK			LTIP			LTOE			LMT1			LMT5			LHEE			RKNE			RTHI			RANK			RTIP			RTOE			RMT1			RMT5			RHEE			
		X1	Y1	Z1	X2	Y2	Z2	X3	Y3	Z3	X4	Y4	Z4	X5	Y5	Z5	X6	Y6	Z6	X7	Y7	Z7	X8	Y8	Z8	X9	Y9	Z9	X10	Y10	Z10	X11	Y11	Z11	X12	Y12	Z12	X13	Y13	Z13	X14	Y14	Z14	X15	Y15	Z15	X16	Y16	Z16	X17	Y17	Z17	X18	Y18	Z18	X19	Y19	Z19	X20	Y20	Z20	X21	Y21	Z21	X22	Y22	Z22	X23	Y23	Z23	X24	Y24	Z24	X25	Y25	Z25	X26	Y26	Z26	X27	Y27	Z27	X28	Y28	Z28	X29	Y29	Z29	X30	Y30	Z30	X31	Y31	Z31	X32	Y32	Z32	X33	Y33	Z33	X34	Y34	Z34	X35	Y35	Z35	X36	Y36	Z36	X37	Y37	Z37	X38	Y38	Z38	X39	Y39	Z39	X40	Y40	Z40	X41	Y41	Z41	X42	Y42	Z42	X43	Y43	Z43	X44	Y44	Z44	X45	Y45	Z45	X46	Y46	Z46	X47	Y47	Z47	X48	Y48	Z48	X49	Y49	Z49	X50	Y50	Z50	X51	Y51	Z51	X52	Y52	Z52	X53	Y53	Z53	

388	3.87	712.52587890625	1009.225524902344	-84.96194458007812	594.48779296875	1009.705444335938	-148.4730987548828	654.046630859375	1104.53515625	-121.9383010864258	757.7246704101562	1297.64013671875	-328.0301513671875	653.4904174804688	1229.431884765625	-112.9892349243164	693.2730102539062	1503.368774414062	-136.1805572509766	751.7850341796875	1408.593017578125	-304.7817993164062	740.5579223632812	1372.841430664062	-43.80853652954102	594.7230834960938	1452.649047851562	-145.5148010253906	557.1195068359375	1482.13720703125	-266.7231140136719	478.8870544433594	1356.229614257812	-292.6898498535156	461.7935180664062	1139.156494140625	-327.4382019042969	490.9499206542969	1119.85986328125	-229.7695465087891	548.1918334960938	924.778076171875	-446.038330078125	471.9396362304688	888.3448486328125	-426.5777893066406	466.7831115722656	1058.367919921875	-363.8351440429688	571.5154418945312	762.44140625	-471.9284057617188	490.12060546875	831.2319946289062	-443.6587829589844	541.4595336914062	853.2459106445312	-483.1223449707031	857.7993774414062	1461.295288085938	-129.6214752197266	912.7566528320312	1395.048583984375	-89.198974609375	960.7503662109375	1106.662353515625	-85.57327270507812	915.285888671875	1084.652221679688	-46.77084350585938	992.5402221679688	904.1215209960938	-245.6079406738281	1032.341430664062	877.5413818359375	-179.0012664794922	974.3472290039062	1052.715942382812	-96.73048400878906	1004.798522949219	734.6884765625	-272.6234741210938	1022.942016601562	817.5862426757812	-274.8297729492188	1042.02099609375	806.5292358398438	-204.2999572753906	785.8160400390625	1680.994140625	-168.0831909179688	725.1211547851562	1720.962890625	-362.644287109375	849.401123046875	1711.52880859375	-290.0006408691406	646.2425537109375	1690.725952148438	-258.2908630371094	541.501220703125	933.9595336914062	-324.8594665527344	879.8546752929688	941.2255859375	-140.4498138427734	865.6859741210938	975.3533935546875	-242.8609161376953	621.8302001953125	963.52880859375	-368.3108215332031	617.822265625	493.8478393554688	-412.5123901367188	583.719482421875	663.4037475585938	-392.6816101074219	481.8566589355469	133.9039459228516	-109.3610610961914	534.8558959960938	315.5122680664062	-242.3218383789062	632.363037109375	56.74094772338867	-244.610107421875	628.5883178710938	89.92200469970703	-172.9914398193359	530.9215087890625	75.07649230957031	-204.8850250244141	501.741943359375	173.7889099121094	-32.28572463989258	865.3073120117188	506.0931396484375	-250.2179870605469	896.7152709960938	792.7786865234375	-198.5251312255859	807.0435791015625	38.56995391845703	-213.7914733886719	853.6240844726562	362.1897583007812	-268.5517272949219	857.63330078125	42.34519577026367	-434.3877258300781	796.1392211914062	47.2891960144043	-392.567626953125	879.5183715820312	39.53057098388672	-327.1021423339844	733.7059936523438	32.38512802124023	-190.0465545654297	
389	3.88	714.5830078125	1009.505676269531	-87.90592956542969	596.6018676757812	1010.108154296875	-151.4683227539062	656.35888671875	1104.880004882812	-124.837287902832	760.1897583007812	1297.97412109375	-330.9211730957031	656.0418090820312	1229.855834960938	-115.8046569824219	695.9503784179688	1503.762817382812	-139.1237487792969	754.2314453125	1408.935546875	-307.7406005859375	743.5482788085938	1373.271606445312	-46.76054000854492	597.396240234375	1453.02587890625	-148.2690582275391	559.6401977539062	1482.454711914062	-269.4058227539062	481.3340759277344	1356.622802734375	-295.3725280761719	463.954345703125	1139.690063476562	-330.3764953613281	493.0875549316406	1120.136108398438	-232.7819976806641	550.7276000976562	926.1893310546875	-450.0205078125	474.57373046875	889.4500122070312	-430.7843322753906	469.0484313964844	1059.091186523438	-367.1097106933594	574.5486450195312	764.1898803710938	-477.0652465820312	492.9316711425781	832.4132690429688	-448.2845764160156	544.0691528320312	854.916748046875	-487.5576477050781	860.5174560546875	1461.772583007812	-132.856689453125	915.6685791015625	1395.582885742188	-92.63925933837891	964.1873779296875	1107.290161132812	-89.68514251708984	919.2344970703125	1084.858032226562	-50.6715202331543	995.4347534179688	906.0360717773438	-251.3987884521484	1035.64111328125	878.9677124023438	-185.2025909423828	977.864013671875	1053.400756835938	-101.2575531005859	1007.878601074219	736.8710327148438	-279.9128112792969	1025.860961914062	819.8211059570312	-281.5035400390625	1045.33642578125	808.1917724609375	-211.1568298339844	788.4442749023438	1681.27880859375	-171.0620727539062	727.5628051757812	1721.415283203125	-365.5234375	851.8944702148438	1711.890991210938	-292.9899597167969	648.7484130859375	1691.1015625	-261.0854187011719	543.916259765625	934.5541381835938	-328.0762939453125	881.8682250976562	941.2216796875	-142.8908843994141	868.1695556640625	975.4449462890625	-245.346435546875	624.488525390625	964.051513671875	-371.1688232421875	621.3571166992188	495.0394287109375	-416.9352111816406	586.5211181640625	664.2701416015625	-396.5484619140625	488.3853759765625	128.7407531738281	-120.6854934692383	539.8309326171875	313.0774841308594	-249.7766876220703	637.4126586914062	56.20673751831055	-260.1145629882812	634.4256591796875	86.69806671142578	-187.4073486328125	536.3755493164062	73.16666412353516	-218.7900085449219	508.9351196289062	165.9678497314453	-42.6856803894043	865.955322265625	505.7562866210938	-250.882080078125	898.3892211914062	792.7120971679688	-200.4706726074219	806.8526000976562	38.65340423583984	-213.9050598144531	853.9581909179688	361.9176330566406	-269.033447265625	857.5932006835938	42.227294921875	-434.5167846679688	796.0816650390625	47.10953140258789	-392.6325073242188	879.4899291992188	39.52138900756836	-327.1115112304688	733.5840454101562	32.37848281860352	-190.0340270996094	
390	3.89	716.6375732421875	1009.728576660156	-90.82054138183594	598.6804809570312	1010.47802734375	-154.4152984619141	658.6254272460938	1105.133422851562	-127.698112487793	762.5870361328125	1298.266967773438	-333.7607116699219	658.4993896484375	1230.199951171875	-118.5751190185547	698.5013427734375	1504.103759765625	-142.0044097900391	756.614990234375	1409.2353515625	-310.637939453125	746.3543701171875	1373.6240234375	-49.65293121337891	599.9728393554688	1453.338134765625	-150.9812164306641	562.0733642578125	1482.713012695312	-272.0747680664062	483.6801147460938	1356.943115234375	-298.0314025878906	466.0350341796875	1140.14599609375	-333.2698364257812	495.1138305664062	1120.354125976562	-235.7556915283203	553.2445678710938	927.5262451171875	-453.9022827148438	477.1642761230469	890.4642944335938	-434.8876342773438	471.2523498535156	1059.733764648438	-370.32470703125	577.5890502929688	765.8796997070312	-482.0909118652344	495.7194213867188	833.50439453125	-452.8433532714844	546.6655883789062	856.5120849609375	-491.8858642578125	863.0979614257812	1462.189331054688	-135.9618835449219	918.4107666015625	1396.044799804688	-95.91867065429688	967.4600830078125	1107.850708007812	-93.64331817626953	922.977294921875	1084.998413085938	-54.43709564208984	998.176025390625	907.8887939453125	-257.0050048828125	1038.778076171875	880.33984375	-191.2176971435547	981.2113647460938	1054.020385742188	-105.6239929199219	1010.788024902344	739.00048828125	-286.9898681640625	1028.618896484375	821.9998779296875	-287.9669189453125	1048.4921875	809.8095092773438	-217.82666015625	790.968017578125	1681.5361328125	-173.9622497558594	729.8943481445312	1721.822631835938	-368.316162109375	854.2713012695312	1712.2255859375	-295.8845825195312	651.1314697265625	1691.42724609375	-263.8076171875	546.2215576171875	935.09326171875	-331.2183837890625	883.8455810546875	941.1632690429688	-145.3783721923828	870.5741577148438	975.4799194335938	-247.8800048828125	627.0071411132812	964.5143432617188	-374.0119323730469	624.8349609375	496.1065368652344	-420.9212951660156	589.2357177734375	665.0046997070312	-400.1220703125	494.9223327636719	123.39697265625	-132.0559387207031	544.7268676757812	310.5257263183594	-257.0653381347656	642.1950073242188	55.67308044433594	-275.5413818359375	640.0556030273438	83.45861053466797	-201.7725219726562	541.62744140625	71.24393463134766	-232.6074676513672	516.0081176757812	157.9762420654297	-53.18723678588867	866.6039428710938	505.4073486328125	-251.684814453125	900.0264892578125	792.5774536132812	-202.4760589599609	806.672119140625	38.75895690917969	-214.0398406982422	854.2967529296875	361.6376342773438	-269.6507568359375	857.5089111328125	42.07981491088867	-434.6891174316406	795.965576171875	46.81924819946289	-392.6777648925781	879.4421997070312	39.50653839111328	-327.119140625	733.4843139648438	32.38716506958008	-190.0376739501953	
391	3.9	718.7020874023438	1009.902587890625	-93.70092010498047	600.7299194335938	1010.821105957031	-157.3029479980469	660.849609375	1105.3173828125	-130.521240234375	764.914306640625	1298.523193359375	-336.5473937988281	660.8662109375	1230.472045898438	-121.2990646362305	700.9305419921875	1504.394165039062	-144.8177947998047	758.931396484375	1409.497314453125	-313.4698486328125	748.982177734375	1373.911499023438	-52.48600387573242	602.4520263671875	1453.590209960938	-153.6482543945312	564.421875	1482.9228515625	-274.7242126464844	485.9334411621094	1357.202392578125	-300.6602172851562	468.0524291992188	1140.534301757812	-336.1161193847656	497.0602416992188	1120.515869140625	-238.6791687011719	555.7354125976562	928.7855834960938	-457.6835632324219	479.7110290527344	891.3919067382812	-438.8815612792969	473.4093322753906	1060.306762695312	-373.4781799316406	580.61376953125	767.5007934570312	-486.9851989746094	498.4570922851562	834.5310668945312	-457.2969970703125	549.2444458007812	858.0242919921875	-496.1051940917969	865.5508422851562	1462.551635742188	-138.9425811767578	920.9932250976562	1396.440307617188	-99.04158782958984	970.5643920898438	1108.34521484375	-97.45021820068359	926.484130859375	1085.088500976562	-58.08484649658203	1000.770263671875	909.6703491210938	-262.4103698730469	1041.752807617188	881.654052734375	-197.0296173095703	984.3780517578125	1054.576171875	-109.8248138427734	1013.539123535156	741.0687255859375	-293.8331604003906	1031.226806640625	824.1126098632812	-294.1986389160156	1051.488159179688	811.3768920898438	-224.2840881347656	793.385986328125	1681.771728515625	-176.7852325439453	732.1155395507812	1722.190673828125	-371.0247497558594	856.5339965820312	1712.542236328125	-298.6894226074219	653.4008178710938	1691.70654296875	-266.466796875	548.4120483398438	935.5848388671875	-334.2731323242188	885.8016357421875	941.064697265625	-147.9316711425781	872.8916625976562	975.469482421875	-250.4786529541016	629.3734741210938	964.932373046875	-376.8409423828125	628.2738037109375	497.05712890625	-424.5050659179688	591.8672485351562	665.6173706054688	-403.4275512695312	501.49365234375	117.9190368652344	-143.4603271484375	549.5403442382812	307.890625	-264.2044372558594	646.751953125	55.17214584350586	-290.8035583496094	645.4934692382812	80.25180053710938	-216.0142822265625	546.6939697265625	69.35735321044922	-246.2835845947266	522.9388427734375	149.8995208740234	-63.78311538696289	867.2581176757812	505.0513305664062	-252.6380920410156	901.6278076171875	792.3800048828125	-204.5762023925781	806.5070190429688	38.87401962280273	-214.1865997314453	854.640625	361.3484802246094	-270.3999328613281	857.3883056640625	41.90507507324219	-434.897216796875	795.7871704101562	46.40941619873047	-392.6952819824219	879.3759155273438	39.49041748046875	-327.1316833496094	733.4022827148438	32.40948486328125	-190.0722198486328	
